<?xml version="1.0" encoding="UTF-8" standalone="no"?>
<!-- Created with Inkscape (http://www.inkscape.org/) -->

<svg
   width="135.46667mm"
   height="135.46666mm"
   viewBox="0 0 135.46667 135.46666"
   version="1.1"
   id="svg31260"
   inkscape:version="1.1.1 (3bf5ae0d25, 2021-09-20)"
   sodipodi:docname="social-github2.svg"
   xmlns:inkscape="http://www.inkscape.org/namespaces/inkscape"
   xmlns:sodipodi="http://sodipodi.sourceforge.net/DTD/sodipodi-0.dtd"
   xmlns="http://www.w3.org/2000/svg"
   xmlns:svg="http://www.w3.org/2000/svg">
  <sodipodi:namedview
     id="namedview31262"
     pagecolor="#ffffff"
     bordercolor="#666666"
     borderopacity="1.0"
     inkscape:pageshadow="2"
     inkscape:pageopacity="0.0"
     inkscape:pagecheckerboard="0"
     inkscape:document-units="mm"
     showgrid="false"
     fit-margin-top="0"
     fit-margin-left="0"
     fit-margin-right="0"
     fit-margin-bottom="0"
     inkscape:zoom="0.3884119"
     inkscape:cx="-294.79015"
     inkscape:cy="773.66322"
     inkscape:window-width="1858"
     inkscape:window-height="1057"
     inkscape:window-x="54"
     inkscape:window-y="-8"
     inkscape:window-maximized="1"
     inkscape:current-layer="layer1" />
  <defs
     id="defs31257" />
  <g
     inkscape:label="Layer 1"
     inkscape:groupmode="layer"
     id="layer1"
     transform="translate(-110.05795,-12.306809)">
    <path
       id="path1408"
       style="fill:#fff4f4;fill-opacity:1;stroke:none;stroke-width:0.264583"
       d="m 177.79128,12.306809 c -37.41208,0 -67.73333,30.32125 -67.73333,67.733333 0,37.412078 30.32125,67.733328 67.73333,67.733328 37.41209,0 67.73334,-30.32125 67.73334,-67.733328 0,-37.412083 -30.32125,-67.733333 -67.73334,-67.733333 z"
       inkscape:export-filename="C:\Users\jdtan\OneDrive\Documents\portfolio\social icons\git.png"
       inkscape:export-xdpi="96"
       inkscape:export-ydpi="96" />
    <path
       id="path2-3"
       d="m 159.48904,48.064185 c -0.98948,-0.01863 -1.89842,0.06531 -2.62636,0.201539 -1.9412,3.08207 -1.70274,7.95201 -0.35753,10.574327 -2.72448,2.945839 -4.10367,6.504895 -4.10367,10.676755 0,2.945841 0.35745,5.533964 1.0556,7.781663 0.71517,2.247693 1.61766,4.052662 2.72447,5.448958 1.14088,1.413325 2.53711,2.571097 4.10369,3.439525 l 0.0682,0.03426 c 1.39629,0.817342 3.01381,1.515356 4.71662,1.992137 l 0.15332,0.03426 c 1.51549,0.408673 3.3206,0.731933 5.15962,0.919242 l 0.15332,0.0173 c -1.37927,1.243044 -2.23073,3.030712 -2.53724,5.346523 -0.66409,0.323529 -1.44752,0.595979 -2.26486,0.766257 l -0.0682,0.01728 c -0.83437,0.170281 -1.78781,0.255421 -2.7584,0.255421 h -0.18724 c -1.14088,0 -2.28175,-0.374891 -3.40561,-1.124125 -1.12384,-0.749228 -2.07748,-1.821992 -2.8778,-3.235319 -0.64706,-1.08979 -1.48136,-1.992141 -2.48601,-2.673258 l -0.0343,-0.01701 c -1.02167,-0.698146 -1.87301,-1.106956 -2.57116,-1.24318 l -0.47657,-0.102102 -0.25543,-0.03392 c -0.45975,0 -0.86856,0.255214 -1.07289,0.646858 l -0.0682,0.119401 -0.13602,0.544756 c 0,0.476787 0.28942,0.902555 0.69809,1.089864 0.76625,0.340559 1.51535,1.004586 2.24755,1.975183 0.61301,0.76626 1.15798,1.634617 1.60071,2.571158 l 0.0339,0.08514 0.52814,1.191959 c 0.44273,1.29413 1.22581,2.384128 2.26452,3.184442 l 0.017,0.01704 c 0.9706,0.766259 2.1458,1.311089 3.4229,1.549481 h 0.0509 c 1.07276,0.20434 2.31574,0.34049 3.59284,0.35752 h 0.0173 0.47658 c 0.8514,0 1.66867,-0.068 2.48602,-0.2042 l -0.0851,0.017 1.19196,-0.2042 c 0,1.31116 0.0172,2.84361 0.0343,4.61453 0.0167,1.04983 0.0167,3.86849 0.0167,5.99905 3.1588,0.85904 6.41586,1.30376 9.68933,1.32299 3.42595,-0.0112 6.83444,-0.48874 10.13166,-1.41911 V 96.540199 c 0,-3.354515 -0.90262,-5.806411 -2.69056,-7.355962 1.99228,-0.204332 3.81448,-0.528003 5.56836,-0.987758 l -0.25542,0.05122 c 1.85605,-0.510839 3.47358,-1.209193 4.97204,-2.077619 l -0.1021,0.05122 c 1.65172,-0.902486 3.03092,-2.060318 4.18882,-3.422563 l 0.0171,-0.01701 c 1.12385,-1.362239 2.04329,-3.184234 2.74143,-5.448957 0.71518,-2.264727 1.05595,-4.870148 1.05595,-7.798966 0,-4.188886 -1.36218,-7.747601 -4.10369,-10.676422 1.2771,-3.150177 1.14081,-6.675244 -0.40874,-10.574655 -0.97059,-0.306501 -2.36709,-0.11906 -4.20612,0.562057 -1.83902,0.68112 -3.40547,1.447515 -4.8869,2.349995 l 0.11906,-0.06817 -1.97518,1.242846 c -2.9799,-0.851403 -6.41956,-1.344946 -9.96138,-1.344946 -3.54183,0 -10.08909,1.379035 -10.08909,1.379035 0,0 -4.77173,-4.220224 -8.24595,-4.33932 z"
       style="fill:none;fill-opacity:1;stroke:#fe5e74;stroke-width:2.18867;stroke-miterlimit:4;stroke-dasharray:none;stroke-opacity:1"
       sodipodi:nodetypes="cccscccccccccccsssccccccccccccccccccccscccccccsccccccccsccscccsccc"
       inkscape:export-filename="C:\Users\jdtan\OneDrive\Documents\portfolio\social icons\git.png"
       inkscape:export-xdpi="96"
       inkscape:export-ydpi="96" />
  </g>
</svg>
