<?xml version="1.0" encoding="UTF-8" standalone="no"?>
<!-- Created with Inkscape (http://www.inkscape.org/) -->

<svg
   width="130.13892mm"
   height="135.90585mm"
   viewBox="0 0 130.13892 135.90585"
   version="1.1"
   id="svg54038"
   inkscape:version="1.1.1 (3bf5ae0d25, 2021-09-20)"
   sodipodi:docname="waving-avatar-svg.svg"
   xmlns:inkscape="http://www.inkscape.org/namespaces/inkscape"
   xmlns:sodipodi="http://sodipodi.sourceforge.net/DTD/sodipodi-0.dtd"
   xmlns="http://www.w3.org/2000/svg"
   xmlns:svg="http://www.w3.org/2000/svg">
  <sodipodi:namedview
     id="namedview54040"
     pagecolor="#ffffff"
     bordercolor="#666666"
     borderopacity="1.0"
     inkscape:pageshadow="2"
     inkscape:pageopacity="0.0"
     inkscape:pagecheckerboard="0"
     inkscape:document-units="mm"
     showgrid="false"
     fit-margin-top="0"
     fit-margin-left="0"
     fit-margin-right="0"
     fit-margin-bottom="0"
     inkscape:zoom="0.77682379"
     inkscape:cx="246.51665"
     inkscape:cy="256.815"
     inkscape:window-width="1858"
     inkscape:window-height="1057"
     inkscape:window-x="54"
     inkscape:window-y="-8"
     inkscape:window-maximized="1"
     inkscape:current-layer="layer1" />
  <defs
     id="defs54035" />
  <g
     inkscape:label="Layer 1"
     inkscape:groupmode="layer"
     id="layer1"
     transform="translate(-40.004509,-80.71737)">
    <circle
       style="display:inline;fill:#7c7a7a;fill-opacity:1;stroke-width:0.255077"
       id="path859"
       cx="102.96093"
       cy="153.66681"
       r="62.956421"
       inkscape:export-filename="C:\Users\jdtan\OneDrive - sfuca0\Documents\portfolio\avatar3.png"
       inkscape:export-xdpi="96"
       inkscape:export-ydpi="96" />
    <path
       id="circle57492"
       style="display:inline;fill:#ff5d73;fill-opacity:1;stroke-width:0.255077"
       d="m 82.010323,175.27011 c -7.059279,9.25579 -11.636991,19.8523 -14.907617,30.12271 2.61026,1.81088 5.353849,3.42159 8.207251,4.81831 z"
       inkscape:export-filename="C:\Users\jdtan\OneDrive - sfuca0\Documents\portfolio\avatar3.png"
       inkscape:export-xdpi="96"
       inkscape:export-ydpi="96"
       sodipodi:nodetypes="cccc" />
    <path
       id="path859-1"
       style="display:inline;fill:#ff9daa;fill-opacity:1;stroke-width:0.255077"
       d="m 122.33913,168.38371 -40.120035,4.91443 c -7.155751,22.97854 -7.046804,30.11174 -7.609353,36.54299 a 62.956421,62.956421 0 0 0 28.351238,6.78201 62.956421,62.956421 0 0 0 36.73419,-11.87679 c -1.9588,-8.6418 -7.35124,-22.98852 -17.35604,-36.36264 z"
       inkscape:export-filename="C:\Users\jdtan\OneDrive - sfuca0\Documents\portfolio\avatar3.png"
       inkscape:export-xdpi="96"
       inkscape:export-ydpi="96" />
    <g
       id="g38771"
       transform="rotate(3.3811543,111.56992,529.93127)"
       inkscape:export-filename="C:\Users\jdtan\OneDrive - sfuca0\Documents\portfolio\avatar3.png"
       inkscape:export-xdpi="96"
       inkscape:export-ydpi="96"
       style="display:inline">
      <g
         id="path35968">
        <path
           style="color:#000000;fill:#000000;stroke-width:1.32292;stroke-linecap:round;-inkscape-stroke:none"
           d="m 63.959408,96.180284 c -2.928312,-0.526782 -4.460873,-1.877805 -5.083972,-3.45427 -0.993732,-2.514183 0.325719,-5.601767 1.985785,-6.83379 3.226585,-2.616933 12.111806,-1.745771 19.23777,-0.427565 m -6.695747,-1.70443 c 1.349577,-0.478131 2.664074,-0.81398 3.93228,-1.024592 9.515468,-1.580244 16.424903,3.889934 15.992633,9.211313 -0.254991,3.139026 -2.963056,5.89305 -8.268229,6.978385 l -21.10052,-2.745051"
           id="path42692" />
        <path
           style="color:#000000;fill:#000000;stroke-linecap:round;-inkscape-stroke:none"
           d="m 80.777344,81.796875 c -1.137353,-0.0089 -2.324547,0.08347 -3.550782,0.287109 -1.307443,0.217129 -2.659812,0.562015 -4.044921,1.052735 a 0.66145998,0.66145998 0 0 0 -0.392579,0.679687 c -1.270801,-0.116589 -2.559294,-0.256424 -3.761718,-0.27539 -3.569856,-0.05631 -6.697296,0.320451 -8.570313,1.832031 -0.969703,0.724339 -1.76063,1.894398 -2.210937,3.246094 -0.452112,1.35711 -0.554004,2.913365 0.01367,4.349609 0.711899,1.801132 2.499343,3.308728 5.582031,3.863281 a 0.66145998,0.66145998 0 0 0 0.01953,-0.01367 0.66145998,0.66145998 0 0 0 0.01367,0.01758 l 21.208984,2.759766 0.109375,-0.02148 C 90.670487,98.453705 93.705218,95.4846 93.988281,92 c 0.240643,-2.962393 -1.55305,-5.869754 -4.568359,-7.802734 -2.261482,-1.449735 -5.23052,-2.373642 -8.642578,-2.400391 z m -0.0098,1.324219 c 3.180409,0.02566 5.904849,0.886411 7.9375,2.189453 2.710202,1.737389 4.154517,4.223051 3.962891,6.582031 -0.225529,2.776331 -2.589938,5.297553 -7.658203,6.359375 L 64.068359,95.527344 c -2.767068,-0.500072 -4.044463,-1.694737 -4.578125,-3.044922 -0.426055,-1.077937 -0.36443,-2.322082 0.0098,-3.445313 0.374196,-1.123231 1.070828,-2.104882 1.755859,-2.613281 l 0.01172,-0.0098 0.0098,-0.0078 c 1.354697,-1.098732 4.275815,-1.597461 7.730468,-1.542969 3.454654,0.05449 7.43045,0.597055 10.970704,1.251953 A 0.66145998,0.66145998 0 0 0 80.75,85.585937 0.66145998,0.66145998 0 0 0 80.21875,84.814453 c -1.659594,-0.307002 -3.420926,-0.577354 -5.181641,-0.798828 0.809834,-0.229845 1.631745,-0.49833 2.40625,-0.626953 1.152631,-0.191419 2.264083,-0.27613 3.324219,-0.267578 z"
           id="path42694" />
      </g>
    </g>
    <path
       style="display:inline;fill:#2e1115;fill-opacity:1;stroke:none;stroke-width:0.264583px;stroke-linecap:butt;stroke-linejoin:miter;stroke-opacity:1"
       d="m 99.122417,82.241456 c 2.034193,0.60336 3.438863,0.892641 7.417343,1.600912 -1.05651,-0.908829 -2.76758,-1.267841 -2.83762,-3.005314 -0.38419,0.0055 -3.5145,0.515687 -4.203783,0.850502 -0.323335,0.157059 -0.352706,0.365233 -0.37594,0.5539 z"
       id="path38626"
       sodipodi:nodetypes="cccsc"
       inkscape:export-filename="C:\Users\jdtan\OneDrive - sfuca0\Documents\portfolio\avatar3.png"
       inkscape:export-xdpi="96"
       inkscape:export-ydpi="96" />
    <path
       id="path23199"
       style="display:inline;fill:#000000;fill-opacity:1;stroke-width:0.454444;stroke-linecap:round;stroke-linejoin:round"
       d="M 103.17776,91.802721 C 75.030628,90.524382 46.318569,114.11423 58.209193,134.04652 c 0.0094,2.9974 0.318421,5.98635 0.922518,8.92226 l 28.254886,26.11516 c 5.172232,2.00299 9.762965,-2.11298 15.309493,-2.11022 24.83583,2.1e-4 45.47594,-4.45497 41.30565,-40.17608 -1.87221,-16.03665 -14.52045,-33.80031 -40.82398,-34.994919 z"
       sodipodi:nodetypes="sccccss"
       inkscape:export-filename="C:\Users\jdtan\OneDrive - sfuca0\Documents\portfolio\avatar3.png"
       inkscape:export-xdpi="96"
       inkscape:export-ydpi="96" />
    <path
       style="display:inline;fill:#2e1115;fill-opacity:1;stroke:none;stroke-width:0.264583px;stroke-linecap:butt;stroke-linejoin:miter;stroke-opacity:1"
       d="m 86.284951,93.414039 c -1.055069,-0.51605 -2.03692,-2.179192 -2.222445,-3.030629 2.056996,0.682823 8.452167,1.352161 13.267295,1.402912 -4.676993,0.257385 -8.021623,0.870629 -11.04485,1.627717 z"
       id="path37162"
       sodipodi:nodetypes="cccc"
       inkscape:export-filename="C:\Users\jdtan\OneDrive - sfuca0\Documents\portfolio\avatar3.png"
       inkscape:export-xdpi="96"
       inkscape:export-ydpi="96" />
    <path
       style="display:inline;fill:#2e1115;fill-opacity:1;stroke:none;stroke-width:0.264583px;stroke-linecap:butt;stroke-linejoin:miter;stroke-opacity:1"
       d="m 127.82961,163.66405 3.63972,-8.5409 3.18051,1.59025 -2.66602,4.91108 c -1.2024,0.9154 -3.22262,1.64895 -4.15421,2.03957 z"
       id="path34344"
       sodipodi:nodetypes="ccccc"
       inkscape:export-filename="C:\Users\jdtan\OneDrive - sfuca0\Documents\portfolio\avatar3.png"
       inkscape:export-xdpi="96"
       inkscape:export-ydpi="96" />
    <path
       style="display:inline;fill:#2e1115;fill-opacity:1;stroke:none;stroke-width:0.264583px;stroke-linecap:butt;stroke-linejoin:miter;stroke-opacity:1"
       d="m 111.14601,108.22769 16.40417,9.92188 4.63021,6.61458 4.63021,13.22917 0.52916,15.08125 c 0.67047,-7.05644 3.23746,-6.82189 -0.2914,-21.29758 -3.42256,-10.5936 -7.60985,-14.42481 -9.20425,-16.17971 -1.33529,-1.4697 -10.27663,-6.74268 -16.6981,-7.36959 z"
       id="path43321"
       sodipodi:nodetypes="ccccccsc"
       inkscape:export-filename="C:\Users\jdtan\OneDrive - sfuca0\Documents\portfolio\avatar3.png"
       inkscape:export-xdpi="96"
       inkscape:export-ydpi="96" />
    <path
       id="circle7353"
       style="display:inline;fill:#ffe6d5;stroke-width:2.17396;stroke-linecap:round;stroke-linejoin:round"
       d="m 109.26292,110.62238 -3.37137,0.96325 -13.005405,-0.48163 -5.415174,-0.35191 c -13.728827,3.9026 -23.286032,8.39828 -28.362092,28.36209 -5.07606,19.96382 7.28953,39.03719 39.51007,36.62053 32.220541,-2.41666 35.536121,-22.11266 37.086291,-30.8245 l 0.65215,-5.86889 -3.63389,-8.7049 c -3.82801,-7.12498 -9.6687,-12.96549 -16.7938,-16.79329 z"
       sodipodi:nodetypes="cccczzccccc"
       inkscape:export-filename="C:\Users\jdtan\OneDrive - sfuca0\Documents\portfolio\avatar3.png"
       inkscape:export-xdpi="96"
       inkscape:export-ydpi="96" />
    <path
       style="display:inline;fill:#ffe6d5;fill-opacity:1;stroke:none;stroke-width:0.264583px;stroke-linecap:butt;stroke-linejoin:miter;stroke-opacity:1"
       d="m 137.58538,138.64934 c 1.9754,-1.648 3.29055,-1.62722 3.53368,-1.63805 2.76102,-0.12291 3.44165,4.28238 2.80993,6.53412 -1.44881,5.16423 -4.01811,5.89221 -5.83272,6.34361 z"
       id="path7355"
       sodipodi:nodetypes="csscc"
       inkscape:export-filename="C:\Users\jdtan\OneDrive - sfuca0\Documents\portfolio\avatar3.png"
       inkscape:export-xdpi="96"
       inkscape:export-ydpi="96" />
    <path
       style="display:inline;fill:#2e1115;fill-opacity:1;stroke:none;stroke-width:0.264583px;stroke-linecap:butt;stroke-linejoin:miter;stroke-opacity:1"
       d="m 105.16892,112.30804 c -16.689812,-0.0302 -21.040483,2.43873 -26.130917,5.7199 l 11.740853,-13.30629 7.887443,-0.18063 z"
       id="path5077"
       sodipodi:nodetypes="ccccc"
       inkscape:export-filename="C:\Users\jdtan\OneDrive - sfuca0\Documents\portfolio\avatar3.png"
       inkscape:export-xdpi="96"
       inkscape:export-ydpi="96" />
    <path
       style="display:inline;fill:none;stroke:#000000;stroke-width:1.32292;stroke-linecap:round;stroke-linejoin:miter;stroke-miterlimit:4;stroke-dasharray:none;stroke-opacity:1"
       d="m 97.527143,111.7051 c -2.489041,-2.40326 -5.123109,-4.08139 -8.012834,-4.48123"
       id="path6117"
       sodipodi:nodetypes="cc"
       inkscape:export-filename="C:\Users\jdtan\OneDrive - sfuca0\Documents\portfolio\avatar3.png"
       inkscape:export-xdpi="96"
       inkscape:export-ydpi="96" />
    <path
       style="display:inline;fill:none;stroke:#000000;stroke-width:1.32292;stroke-linecap:round;stroke-linejoin:miter;stroke-miterlimit:4;stroke-dasharray:none;stroke-opacity:1"
       d="m 91.800395,112.34291 c -1.929512,-2.36884 -5.402591,-3.07537 -8.267336,-4.43703"
       id="path6117-2"
       sodipodi:nodetypes="cc"
       inkscape:export-filename="C:\Users\jdtan\OneDrive - sfuca0\Documents\portfolio\avatar3.png"
       inkscape:export-xdpi="96"
       inkscape:export-ydpi="96" />
    <path
       id="path6307"
       style="display:inline;fill:#ff8080;stroke-width:1.45507;stroke-linecap:round;stroke-linejoin:round;stroke-miterlimit:4;stroke-dasharray:none"
       d="m 100.86201,157.84718 -14.849094,2.11955 a 7.5,7.5 0 0 0 8.484321,6.36477 7.5,7.5 0 0 0 6.364773,-8.48432 z"
       inkscape:export-filename="C:\Users\jdtan\OneDrive - sfuca0\Documents\portfolio\avatar3.png"
       inkscape:export-xdpi="96"
       inkscape:export-ydpi="96" />
    <path
       style="display:inline;fill:#000000;fill-opacity:1;stroke:#000000;stroke-width:0.265;stroke-linecap:round;stroke-linejoin:bevel;stroke-miterlimit:4;stroke-dasharray:none;stroke-opacity:1"
       d="m 80.143229,153.57013 c -0.520239,-2.21821 -2.604041,-4.16505 -4.820843,-4.69713 -2.957872,-0.70997 -6.050118,-0.0143 -9.077307,-0.93812 -0.988772,-0.35013 -1.412835,-0.92016 -1.458097,-0.90466 0.873323,2.31939 2.646931,3.44598 3.056894,3.61751 1.35308,0.5661 4.708371,0.79752 7.331769,1.13552 2.515465,0.32411 3.446797,0.64756 4.967584,1.78688 z"
       id="path12160-4"
       sodipodi:nodetypes="csccssc"
       inkscape:export-filename="C:\Users\jdtan\OneDrive - sfuca0\Documents\portfolio\avatar3.png"
       inkscape:export-xdpi="96"
       inkscape:export-ydpi="96" />
    <path
       style="display:inline;fill:#000000;fill-opacity:1;stroke:#000000;stroke-width:0.265;stroke-linecap:round;stroke-linejoin:round;stroke-miterlimit:4;stroke-dasharray:none;stroke-opacity:1"
       d="m 104.63901,151.70655 c 0.30117,-2.20352 2.27849,-5.21168 4.28069,-5.74687 2.20352,-0.589 5.8563,-0.43801 8.75989,-1.69757 0.94295,-0.45948 1.05247,-1.0105 1.0992,-1.00021 0.50357,1.95303 -0.8942,3.977 -2.32075,4.35775 -1.35649,0.36204 -5.14672,0.84667 -7.19636,1.39265 -2.27264,0.6096 -3.53543,1.27366 -4.62267,2.69425 z"
       id="path12160"
       sodipodi:nodetypes="csccscc"
       inkscape:export-filename="C:\Users\jdtan\OneDrive - sfuca0\Documents\portfolio\avatar3.png"
       inkscape:export-xdpi="96"
       inkscape:export-ydpi="96" />
    <path
       style="display:inline;fill:#000000;fill-opacity:1;stroke:#000000;stroke-width:0.211433px;stroke-linecap:butt;stroke-linejoin:miter;stroke-opacity:1"
       d="m 79.575781,141.14724 c -1.759185,-1.40848 -4.01155,-2.37266 -7.962318,-1.80676 -0.146501,-0.0585 2.448888,-1.63136 4.687433,-0.9704 2.238544,0.66095 3.274885,2.77716 3.274885,2.77716 z"
       id="path21316-0"
       sodipodi:nodetypes="cczc"
       inkscape:export-filename="C:\Users\jdtan\OneDrive - sfuca0\Documents\portfolio\avatar3.png"
       inkscape:export-xdpi="96"
       inkscape:export-ydpi="96" />
    <path
       style="display:inline;fill:#000000;fill-opacity:1;stroke:#000000;stroke-width:0.211433px;stroke-linecap:butt;stroke-linejoin:miter;stroke-opacity:1"
       d="m 105.80535,138.25038 c 1.8796,-1.24324 4.21009,-1.9993 8.0933,-1.07764 0.1512,-0.045 -2.29095,-1.84661 -4.58029,-1.39091 -2.28923,0.45533 -3.51311,2.46889 -3.51311,2.46889 z"
       id="path60183"
       sodipodi:nodetypes="cczc"
       inkscape:export-filename="C:\Users\jdtan\OneDrive - sfuca0\Documents\portfolio\avatar3.png"
       inkscape:export-xdpi="96"
       inkscape:export-ydpi="96" />
    <path
       style="display:inline;fill:#ff9daa;fill-opacity:1;stroke:none;stroke-width:0.264583px;stroke-linecap:butt;stroke-linejoin:miter;stroke-opacity:1"
       d="m 122.91052,170.31771 6.64162,22.05361 11.75058,-4.68319 5.44954,-3.49112 2.80992,-8.25946 3.32082,-10.04759 1.70298,-5.10894 1.6406,-0.18495 2.64922,-0.54189 5.96074,-5.78011 3.73298,-5.59948 0.48168,-3.67278 -1.02356,-4.99739 -2.58901,-4.69634 -2.76963,-3.07069 -3.67278,-2.34816 -1.62566,1.08377 -3.49215,3.79319 -6.02095,8.06808 -1.02356,-3.55237 -2.04713,-1.68586 -2.34816,0.42147 -0.36126,1.32461 0.72251,7.46597 -0.48167,4.99739 0.72251,2.70943 -4.81676,9.03142 -5.17802,7.34556 -5.35865,0.42146 z"
       id="path10828"
       inkscape:export-filename="C:\Users\jdtan\OneDrive - sfuca0\Documents\portfolio\avatar3.png"
       inkscape:export-xdpi="96"
       inkscape:export-ydpi="96" />
    <path
       id="path32017"
       style="display:inline;fill:none;fill-opacity:1;stroke:#ff9daa;stroke-width:1.323;stroke-linecap:round;stroke-linejoin:miter;stroke-miterlimit:4;stroke-dasharray:none;stroke-opacity:1"
       d="m 153.51644,144.60547 c 2.46055,0.37814 4.62306,1.62625 6.58086,3.98806 m -15.75449,6.50703 c -1.29452,-0.95293 -1.72784,-3.89224 -1.53316,-5.88922 1.12995,-4.40162 -0.45061,-10.29387 -0.13415,-10.73164 0.29262,-0.51309 2.93666,-2.0771 4.85304,1.53816 0.50198,1.20995 0.97684,4.00581 1.66614,4.76069 0.61878,0.77029 1.14628,0.92605 1.9543,2.97036 m -0.73133,11.95977 c 0.17978,0.0289 2.69156,1.21965 4.53062,1.13649 2.66528,-0.12052 5.28523,-0.60769 9.80376,-6.166 2.24265,-2.75871 4.9368,-6.01769 4.71678,-9.56614 -0.36674,-5.91473 -4.67747,-13.42973 -9.77153,-14.85178 -2.35772,-0.69962 -6.98839,7.40579 -10.48468,11.7253 -0.0199,0.0246 -0.0397,0.049 -0.0596,0.0733 -0.007,0.009 -0.0144,0.0176 -0.0215,0.0264 -0.24022,0.29419 -0.47491,0.56987 -0.70294,0.82288 m -18.48448,49.30896 c 0,0 14.21983,-4.5767 17.37041,-8.51492 0.99114,-1.07277 4.6634,-15.85079 7.99869,-22.89446 m -32.01073,9.44091 c 0,0 3.46013,1.55306 10.12962,0.68313 3.77698,-4.93155 7.89852,-10.82549 10.23338,-16.71844"
       sodipodi:nodetypes="cccccccccssscsssccccccc"
       inkscape:export-filename="C:\Users\jdtan\OneDrive - sfuca0\Documents\portfolio\avatar3.png"
       inkscape:export-xdpi="96"
       inkscape:export-ydpi="96" />
    <path
       style="display:inline;fill:#000000;fill-opacity:1;stroke:#000000;stroke-width:1.32292;stroke-linecap:round;stroke-linejoin:round;stroke-miterlimit:4;stroke-dasharray:none;stroke-opacity:1"
       d="m 105.22873,111.65708 c -3.2383,-4.43987 -9.487083,-6.29587 -11.908774,-7.04066 -30.980589,27.48794 -31.747631,28.22344 -32.697248,32.01605 -0.682972,15.89663 3.046075,33.67581 5.507978,35.90016 2.822829,2.15711 6.078298,4.31422 9.196102,6.47133 -8.070789,-2.81323 -17.904555,-8.23683 -20.394459,-10.17658 -2.536175,-2.31993 -7.56026,-20.02963 -8.174312,-30.99426 2.272671,-6.28344 2.5521,-9.25778 22.537794,-29.4117 5.689536,-5.25791 10.609385,-8.812508 26.480432,-8.15527 3.999385,0.46706 7.143087,1.96094 7.947657,6.26179 z"
       id="path1154"
       sodipodi:nodetypes="ccccccccccc"
       inkscape:export-filename="C:\Users\jdtan\OneDrive - sfuca0\Documents\portfolio\avatar3.png"
       inkscape:export-xdpi="96"
       inkscape:export-ydpi="96" />
    <path
       style="display:inline;fill:#000000;fill-opacity:1;stroke:#000000;stroke-width:1.32292;stroke-linecap:round;stroke-linejoin:round;stroke-miterlimit:4;stroke-dasharray:none;stroke-opacity:1"
       d="m 106.25269,111.70595 c 2.9302,0.0572 11.07661,3.26855 13.68538,5.39681 7.6896,6.27325 11.05218,10.25312 13.89058,25.43045 2.0569,15.15011 -4.72276,26.2671 -9.87437,38.41366 5.49255,-7.48137 13.06591,-23.73977 13.84819,-30.70684 0.75778,-8.61907 -2.56082,-20.85302 -6.88721,-27.54937 -4.61499,-7.14305 -11.52777,-11.82642 -19.72539,-13.99518 z"
       id="path3435"
       sodipodi:nodetypes="cscccscc"
       inkscape:export-filename="C:\Users\jdtan\OneDrive - sfuca0\Documents\portfolio\avatar3.png"
       inkscape:export-xdpi="96"
       inkscape:export-ydpi="96" />
    <path
       style="display:inline;fill:#ff5d73;fill-opacity:1;stroke:none;stroke-width:0.265;stroke-linecap:butt;stroke-linejoin:miter;stroke-miterlimit:4;stroke-dasharray:none;stroke-opacity:1"
       d="m 130.18862,192.1372 c 0,0 2.72096,-0.33524 5.01442,-1.09279 1.44404,3.167 2.32654,6.0553 3.14138,8.69908 0.7151,0.21301 -7.86231,-5.3841 -8.1558,-7.60629 z"
       id="path11125"
       sodipodi:nodetypes="sccs"
       inkscape:export-filename="C:\Users\jdtan\OneDrive - sfuca0\Documents\portfolio\avatar3.png"
       inkscape:export-xdpi="96"
       inkscape:export-ydpi="96" />
    <path
       style="display:inline;fill:#ff5d73;fill-opacity:1;stroke:none;stroke-width:0.264583px;stroke-linecap:butt;stroke-linejoin:miter;stroke-opacity:1"
       d="m 151.2254,159.79844 c 0.6307,0.5079 1.66929,1.55969 4.5161,1.66049 l -2.7816,7.30715 c 0.0805,-2.10031 -0.13149,-6.41726 -1.7345,-8.96764 z"
       id="path11931"
       sodipodi:nodetypes="cccc"
       inkscape:export-filename="C:\Users\jdtan\OneDrive - sfuca0\Documents\portfolio\avatar3.png"
       inkscape:export-xdpi="96"
       inkscape:export-ydpi="96" />
    <path
       style="display:inline;fill:#ff5d73;fill-opacity:1;stroke:none;stroke-width:0.264583px;stroke-linecap:butt;stroke-linejoin:miter;stroke-opacity:1"
       d="m 154.95152,145.12653 c 2.00015,0.0607 4.94595,1.59339 6.96964,4.32038 -0.62469,0.33431 -4.70695,0.0262 -5.15038,-0.39819 -0.58922,-0.28115 -1.94701,-3.71282 -1.81926,-3.92219 z"
       id="path11999"
       sodipodi:nodetypes="cccc"
       inkscape:export-filename="C:\Users\jdtan\OneDrive - sfuca0\Documents\portfolio\avatar3.png"
       inkscape:export-xdpi="96"
       inkscape:export-ydpi="96" />
    <path
       style="display:inline;fill:#ff5d73;fill-opacity:1;stroke:none;stroke-width:0.264583px;stroke-linecap:butt;stroke-linejoin:miter;stroke-opacity:1"
       d="m 148.70337,141.57154 c 0.23699,0.89336 0.4801,1.7459 0.82417,2.61249 2.14793,1.57032 2.22805,3.03636 2.45628,4.71168 0.0813,-0.38932 0.48775,-3.19174 -0.82976,-5.20159 -1.19356,-1.82077 -2.27828,-2.00539 -2.45069,-2.12258 z"
       id="path16638"
       sodipodi:nodetypes="cccsc"
       inkscape:export-filename="C:\Users\jdtan\OneDrive - sfuca0\Documents\portfolio\avatar3.png"
       inkscape:export-xdpi="96"
       inkscape:export-ydpi="96" />
    <path
       style="display:inline;fill:#2e1115;fill-opacity:1;stroke:none;stroke-width:0.264583px;stroke-linecap:butt;stroke-linejoin:miter;stroke-opacity:1"
       d="m 86.308252,98.735772 c 0,0 -3.004887,0.33379 -5.986198,0.89297 -7.874761,4.884208 -15.713475,13.711728 -15.713475,13.711728 0,0 5.912221,-9.74073 10.173761,-12.38881 2.405277,-1.494618 6.552402,-2.328658 11.525912,-2.215888 z"
       id="path49158"
       sodipodi:nodetypes="cccsc"
       inkscape:export-filename="C:\Users\jdtan\OneDrive - sfuca0\Documents\portfolio\avatar3.png"
       inkscape:export-xdpi="96"
       inkscape:export-ydpi="96" />
  </g>
</svg>
