<?xml version="1.0" encoding="UTF-8" standalone="no"?>
<!-- Created with Inkscape (http://www.inkscape.org/) -->

<svg
   width="135.46667mm"
   height="135.46667mm"
   viewBox="0 0 135.46667 135.46667"
   version="1.1"
   id="svg31454"
   inkscape:version="1.1.1 (3bf5ae0d25, 2021-09-20)"
   sodipodi:docname="social-mail.svg"
   xmlns:inkscape="http://www.inkscape.org/namespaces/inkscape"
   xmlns:sodipodi="http://sodipodi.sourceforge.net/DTD/sodipodi-0.dtd"
   xmlns="http://www.w3.org/2000/svg"
   xmlns:svg="http://www.w3.org/2000/svg">
  <sodipodi:namedview
     id="namedview31456"
     pagecolor="#ffffff"
     bordercolor="#666666"
     borderopacity="1.0"
     inkscape:pageshadow="2"
     inkscape:pageopacity="0.0"
     inkscape:pagecheckerboard="0"
     inkscape:document-units="mm"
     showgrid="false"
     fit-margin-top="0"
     fit-margin-left="0"
     fit-margin-right="0"
     fit-margin-bottom="0"
     inkscape:zoom="0.77682379"
     inkscape:cx="-202.74868"
     inkscape:cy="156.40613"
     inkscape:window-width="1858"
     inkscape:window-height="1057"
     inkscape:window-x="54"
     inkscape:window-y="-8"
     inkscape:window-maximized="1"
     inkscape:current-layer="layer1" />
  <defs
     id="defs31451" />
  <g
     inkscape:label="Layer 1"
     inkscape:groupmode="layer"
     id="layer1"
     transform="translate(-158.76322,-107.33318)">
    <path
       id="path1408-5-1"
       style="fill:#fff4f4;fill-opacity:1;stroke:none;stroke-width:0.264583"
       d="m 226.49655,107.33318 c -37.41208,0 -67.73333,30.32125 -67.73333,67.73334 0,37.41208 30.32125,67.73333 67.73333,67.73333 37.41209,0 67.73334,-30.32125 67.73334,-67.73333 0,-37.41209 -30.32125,-67.73334 -67.73334,-67.73334 z"
       inkscape:export-filename="C:\Users\jdtan\OneDrive\Documents\portfolio\social icons\mail.png"
       inkscape:export-xdpi="96"
       inkscape:export-ydpi="96" />
    <path
       d="m 255.91474,166.85832 v 26.06921 q 0,2.16699 -1.54314,3.71012 -1.54315,1.54316 -3.71011,1.54316 h -48.32987 q -2.16696,0 -3.71012,-1.54316 -1.54313,-1.54313 -1.54313,-3.71012 v -26.06921 q 1.44465,1.6088 3.31612,2.85644 11.88547,8.07686 16.31788,11.32727 1.87148,1.379 3.03705,2.15056 1.16556,0.77155 3.10271,1.57593 1.93713,0.80444 3.61158,0.80444 h 0.0657 q 1.67447,0 3.6116,-0.80444 1.93715,-0.80438 3.10271,-1.57593 1.16557,-0.77161 3.03704,-2.15056 5.58158,-4.03839 16.35072,-11.32727 1.87147,-1.2805 3.28329,-2.85644 z m 0,-9.65284 q 0,2.59373 -1.60881,4.95773 -1.6088,2.36395 -4.00561,4.03844 -12.34513,8.56935 -15.36574,10.67062 -0.32832,0.2299 -1.39539,1.00142 -1.06706,0.77155 -1.77298,1.24762 -0.7059,0.47612 -1.7073,1.06709 -1.00141,0.59097 -1.88789,0.88649 -0.88648,0.29546 -1.64164,0.29546 h -0.0657 q -0.75514,0 -1.64162,-0.29546 -0.88648,-0.29552 -1.88789,-0.88649 -1.0014,-0.59097 -1.7073,-1.06709 -0.70592,-0.47607 -1.77298,-1.24762 -1.06707,-0.77152 -1.39539,-1.00142 -2.9878,-2.10132 -8.6022,-5.99196 -5.61442,-3.89065 -6.73071,-4.67866 -2.03564,-1.37898 -3.84144,-3.79222 -1.80581,-2.41316 -1.80581,-4.48167 0,-2.56095 1.36257,-4.26823 1.36256,-1.7073 3.89068,-1.7073 h 48.32987 q 2.13413,0 3.6937,1.5431 1.55955,1.54318 1.55955,3.71015 z"
       fill="currentColor"
       id="path2-30"
       style="fill:none;stroke:#fe5e74;stroke-width:2.0178;stroke-miterlimit:4;stroke-dasharray:none;stroke-opacity:1"
       inkscape:export-filename="C:\Users\jdtan\OneDrive\Documents\portfolio\social icons\mail.png"
       inkscape:export-xdpi="96"
       inkscape:export-ydpi="96" />
  </g>
</svg>
