<?xml version="1.0" encoding="UTF-8" standalone="no"?>
<!-- Created with Inkscape (http://www.inkscape.org/) -->

<svg
   width="130.13892mm"
   height="135.90585mm"
   viewBox="0 0 130.13892 135.90585"
   version="1.1"
   id="svg1288"
   inkscape:version="1.1.1 (3bf5ae0d25, 2021-09-20)"
   sodipodi:docname="waving-avatar2.svg"
   xmlns:inkscape="http://www.inkscape.org/namespaces/inkscape"
   xmlns:sodipodi="http://sodipodi.sourceforge.net/DTD/sodipodi-0.dtd"
   xmlns="http://www.w3.org/2000/svg"
   xmlns:svg="http://www.w3.org/2000/svg">
  <sodipodi:namedview
     id="namedview1290"
     pagecolor="#ffffff"
     bordercolor="#666666"
     borderopacity="1.0"
     inkscape:pageshadow="2"
     inkscape:pageopacity="0.0"
     inkscape:pagecheckerboard="0"
     inkscape:document-units="mm"
     showgrid="false"
     fit-margin-top="0"
     fit-margin-left="0"
     fit-margin-right="0"
     fit-margin-bottom="0"
     inkscape:zoom="0.3884119"
     inkscape:cx="817.43119"
     inkscape:cy="68.22654"
     inkscape:window-width="1858"
     inkscape:window-height="1057"
     inkscape:window-x="54"
     inkscape:window-y="-8"
     inkscape:window-maximized="1"
     inkscape:current-layer="layer1" />
  <defs
     id="defs1285" />
  <g
     inkscape:label="Layer 1"
     inkscape:groupmode="layer"
     id="layer1"
     transform="translate(90.614178,47.85774)">
    <circle
       style="display:inline;fill:#7c7a7a;fill-opacity:1;stroke-width:0.255077"
       id="path859"
       cx="-27.657757"
       cy="25.091694"
       r="62.956421"
       inkscape:export-filename="C:\Users\jdtan\OneDrive\Documents\portfolio\avatar4.png"
       inkscape:export-xdpi="96"
       inkscape:export-ydpi="96" />
    <path
       id="circle57492"
       style="display:inline;fill:#ff5d73;fill-opacity:1;stroke-width:0.255077"
       d="m -48.608365,46.695002 c -7.059279,9.255789 -11.636991,19.852301 -14.907617,30.122709 2.61026,1.810879 5.353849,3.421586 8.207251,4.818311 z"
       inkscape:export-filename="C:\Users\jdtan\OneDrive\Documents\portfolio\avatar4.png"
       inkscape:export-xdpi="96"
       inkscape:export-ydpi="96"
       sodipodi:nodetypes="cccc" />
    <path
       id="path859-1"
       style="display:inline;fill:#ff9daa;fill-opacity:1;stroke-width:0.255077"
       d="M -8.2795603,39.808601 -48.399593,44.72303 c -7.155751,22.978539 -7.046804,30.111737 -7.609353,36.542988 A 62.956421,62.956421 0 0 0 -27.657707,88.048032 62.956421,62.956421 0 0 0 9.0764844,76.171238 C 7.1176867,67.529439 1.7252456,53.18272 -8.2795603,39.808601 Z"
       inkscape:export-filename="C:\Users\jdtan\OneDrive\Documents\portfolio\avatar4.png"
       inkscape:export-xdpi="96"
       inkscape:export-ydpi="96" />
    <g
       id="g38771"
       transform="rotate(3.3811543,2224.4141,-1747.1295)"
       inkscape:export-filename="C:\Users\jdtan\OneDrive\Documents\portfolio\avatar4.png"
       inkscape:export-xdpi="96"
       inkscape:export-ydpi="96"
       style="display:inline">
      <g
         id="path35968">
        <path
           style="color:#000000;fill:#000000;stroke-width:1.32292;stroke-linecap:round;-inkscape-stroke:none"
           d="m 63.959408,96.180284 c -2.928312,-0.526782 -4.460873,-1.877805 -5.083972,-3.45427 -0.993732,-2.514183 0.325719,-5.601767 1.985785,-6.83379 3.226585,-2.616933 12.111806,-1.745771 19.23777,-0.427565 m -6.695747,-1.70443 c 1.349577,-0.478131 2.664074,-0.81398 3.93228,-1.024592 9.515468,-1.580244 16.424903,3.889934 15.992633,9.211313 -0.254991,3.139026 -2.963056,5.89305 -8.268229,6.978385 l -21.10052,-2.745051"
           id="path42692" />
        <path
           style="color:#000000;fill:#000000;stroke-linecap:round;-inkscape-stroke:none"
           d="m 80.777344,81.796875 c -1.137353,-0.0089 -2.324547,0.08347 -3.550782,0.287109 -1.307443,0.217129 -2.659812,0.562015 -4.044921,1.052735 a 0.66145998,0.66145998 0 0 0 -0.392579,0.679687 c -1.270801,-0.116589 -2.559294,-0.256424 -3.761718,-0.27539 -3.569856,-0.05631 -6.697296,0.320451 -8.570313,1.832031 -0.969703,0.724339 -1.76063,1.894398 -2.210937,3.246094 -0.452112,1.35711 -0.554004,2.913365 0.01367,4.349609 0.711899,1.801132 2.499343,3.308728 5.582031,3.863281 a 0.66145998,0.66145998 0 0 0 0.01953,-0.01367 0.66145998,0.66145998 0 0 0 0.01367,0.01758 l 21.208984,2.759766 0.109375,-0.02148 C 90.670487,98.453705 93.705218,95.4846 93.988281,92 c 0.240643,-2.962393 -1.55305,-5.869754 -4.568359,-7.802734 -2.261482,-1.449735 -5.23052,-2.373642 -8.642578,-2.400391 z m -0.0098,1.324219 c 3.180409,0.02566 5.904849,0.886411 7.9375,2.189453 2.710202,1.737389 4.154517,4.223051 3.962891,6.582031 -0.225529,2.776331 -2.589938,5.297553 -7.658203,6.359375 L 64.068359,95.527344 c -2.767068,-0.500072 -4.044463,-1.694737 -4.578125,-3.044922 -0.426055,-1.077937 -0.36443,-2.322082 0.0098,-3.445313 0.374196,-1.123231 1.070828,-2.104882 1.755859,-2.613281 l 0.01172,-0.0098 0.0098,-0.0078 c 1.354697,-1.098732 4.275815,-1.597461 7.730468,-1.542969 3.454654,0.05449 7.43045,0.597055 10.970704,1.251953 A 0.66145998,0.66145998 0 0 0 80.75,85.585937 0.66145998,0.66145998 0 0 0 80.21875,84.814453 c -1.659594,-0.307002 -3.420926,-0.577354 -5.181641,-0.798828 0.809834,-0.229845 1.631745,-0.49833 2.40625,-0.626953 1.152631,-0.191419 2.264083,-0.27613 3.324219,-0.267578 z"
           id="path42694" />
      </g>
    </g>
    <path
       style="display:inline;fill:#2e1115;fill-opacity:1;stroke:none;stroke-width:0.264583px;stroke-linecap:butt;stroke-linejoin:miter;stroke-opacity:1"
       d="m -31.496271,-46.333656 c 2.034193,0.60336 3.438865,0.892641 7.417347,1.600912 -1.056519,-0.908829 -2.767582,-1.267841 -2.83762,-3.005314 -0.384192,0.0055 -3.514506,0.515687 -4.203787,0.850502 -0.323335,0.157059 -0.352706,0.365233 -0.37594,0.5539 z"
       id="path38626"
       sodipodi:nodetypes="cccsc"
       inkscape:export-filename="C:\Users\jdtan\OneDrive\Documents\portfolio\avatar4.png"
       inkscape:export-xdpi="96"
       inkscape:export-ydpi="96" />
    <path
       id="path23199"
       style="display:inline;fill:#000000;fill-opacity:1;stroke-width:0.454444;stroke-linecap:round;stroke-linejoin:round"
       d="M -27.440924,-36.772391 C -55.58806,-38.05073 -84.300119,-14.46088 -72.409495,5.47141 c 0.0094,2.9974 0.318421,5.98635 0.922518,8.92226 l 28.254886,26.11516 c 5.172232,2.00299 9.762965,-2.11298 15.309491,-2.11022 24.835835,2.1e-4 45.47594,-4.45497 41.30565,-40.17608 -1.87221,-16.03665 -14.520452,-33.800312 -40.823974,-34.994921 z"
       sodipodi:nodetypes="sccccss"
       inkscape:export-filename="C:\Users\jdtan\OneDrive\Documents\portfolio\avatar4.png"
       inkscape:export-xdpi="96"
       inkscape:export-ydpi="96" />
    <path
       style="display:inline;fill:#2e1115;fill-opacity:1;stroke:none;stroke-width:0.264583px;stroke-linecap:butt;stroke-linejoin:miter;stroke-opacity:1"
       d="m -44.333737,-35.161073 c -1.055069,-0.51605 -2.03692,-2.179192 -2.222445,-3.030629 2.056996,0.682823 8.452167,1.352161 13.267295,1.402912 -4.676993,0.257385 -8.021623,0.870629 -11.04485,1.627717 z"
       id="path37162"
       sodipodi:nodetypes="cccc"
       inkscape:export-filename="C:\Users\jdtan\OneDrive\Documents\portfolio\avatar4.png"
       inkscape:export-xdpi="96"
       inkscape:export-ydpi="96" />
    <path
       style="display:inline;fill:#2e1115;fill-opacity:1;stroke:none;stroke-width:0.264583px;stroke-linecap:butt;stroke-linejoin:miter;stroke-opacity:1"
       d="m -2.789078,35.08894 3.639718,-8.5409 3.18051,1.59025 -2.66602,4.91108 c -1.2024,0.9154 -3.222616,1.64895 -4.154208,2.03957 z"
       id="path34344"
       sodipodi:nodetypes="ccccc"
       inkscape:export-filename="C:\Users\jdtan\OneDrive\Documents\portfolio\avatar4.png"
       inkscape:export-xdpi="96"
       inkscape:export-ydpi="96" />
    <path
       style="display:inline;fill:#2e1115;fill-opacity:1;stroke:none;stroke-width:0.264583px;stroke-linecap:butt;stroke-linejoin:miter;stroke-opacity:1"
       d="M -19.472676,-20.34742 -3.06851,-10.42554 1.5617,-3.81096 6.19191,9.41821 6.72107,24.49946 C 7.39154,17.44302 9.95853,17.67757 6.42967,3.20188 3.00711,-7.39172 -1.18018,-11.22293 -2.774581,-12.97783 c -1.335289,-1.4697 -10.276632,-6.74268 -16.698095,-7.36959 z"
       id="path43321"
       sodipodi:nodetypes="ccccccsc"
       inkscape:export-filename="C:\Users\jdtan\OneDrive\Documents\portfolio\avatar4.png"
       inkscape:export-xdpi="96"
       inkscape:export-ydpi="96" />
    <path
       id="circle7353"
       style="display:inline;fill:#ffe6d5;stroke-width:2.17396;stroke-linecap:round;stroke-linejoin:round"
       d="m -21.355766,-17.952731 -3.371371,0.96325 -13.005406,-0.481626 -5.415174,-0.351915 c -13.728827,3.902602 -23.286032,8.3982775 -28.362092,28.362093 -5.07606,19.963815 7.28953,39.037185 39.51007,36.620528 C 0.22080098,44.742943 3.5363846,25.046934 5.0865493,16.335099 L 5.7387048,10.466207 2.1048168,1.7613122 C -1.7232012,-5.3636682 -7.5638915,-11.204179 -14.688988,-15.03198 Z"
       sodipodi:nodetypes="cccczzccccc"
       inkscape:export-filename="C:\Users\jdtan\OneDrive\Documents\portfolio\avatar4.png"
       inkscape:export-xdpi="96"
       inkscape:export-ydpi="96" />
    <path
       style="display:inline;fill:#ffe6d5;fill-opacity:1;stroke:none;stroke-width:0.264583px;stroke-linecap:butt;stroke-linejoin:miter;stroke-opacity:1"
       d="m 6.96669,10.07423 c 1.9754,-1.648 3.29055,-1.62722 3.53368,-1.63805 2.76102,-0.12291 3.44165,4.28238 2.80993,6.53412 -1.44881,5.16423 -4.01811,5.89221 -5.83272,6.34361 z"
       id="path7355"
       sodipodi:nodetypes="csscc"
       inkscape:export-filename="C:\Users\jdtan\OneDrive\Documents\portfolio\avatar4.png"
       inkscape:export-xdpi="96"
       inkscape:export-ydpi="96" />
    <path
       style="display:inline;fill:#2e1115;fill-opacity:1;stroke:none;stroke-width:0.264583px;stroke-linecap:butt;stroke-linejoin:miter;stroke-opacity:1"
       d="m -25.449766,-16.26707 c -16.689814,-0.0302 -21.040485,2.43873 -26.130919,5.7199 l 11.740853,-13.30629 7.887443,-0.18063 z"
       id="path5077"
       sodipodi:nodetypes="ccccc"
       inkscape:export-filename="C:\Users\jdtan\OneDrive\Documents\portfolio\avatar4.png"
       inkscape:export-xdpi="96"
       inkscape:export-ydpi="96" />
    <path
       style="display:inline;fill:none;stroke:#000000;stroke-width:1.32292;stroke-linecap:round;stroke-linejoin:miter;stroke-miterlimit:4;stroke-dasharray:none;stroke-opacity:1"
       d="m -33.091545,-16.87001 c -2.489041,-2.40326 -5.123109,-4.08139 -8.012834,-4.48123"
       id="path6117"
       sodipodi:nodetypes="cc"
       inkscape:export-filename="C:\Users\jdtan\OneDrive\Documents\portfolio\avatar4.png"
       inkscape:export-xdpi="96"
       inkscape:export-ydpi="96" />
    <path
       style="display:inline;fill:none;stroke:#000000;stroke-width:1.32292;stroke-linecap:round;stroke-linejoin:miter;stroke-miterlimit:4;stroke-dasharray:none;stroke-opacity:1"
       d="m -38.818293,-16.2322 c -1.929512,-2.36884 -5.402591,-3.07537 -8.267336,-4.43703"
       id="path6117-2"
       sodipodi:nodetypes="cc"
       inkscape:export-filename="C:\Users\jdtan\OneDrive\Documents\portfolio\avatar4.png"
       inkscape:export-xdpi="96"
       inkscape:export-ydpi="96" />
    <path
       id="path6307"
       style="display:inline;fill:#ff8080;stroke-width:1.45507;stroke-linecap:round;stroke-linejoin:round;stroke-miterlimit:4;stroke-dasharray:none"
       d="m -29.756682,29.27207 -14.84909,2.11955 a 7.5,7.5 0 0 0 8.484321,6.36477 7.5,7.5 0 0 0 6.364769,-8.48432 z"
       inkscape:export-filename="C:\Users\jdtan\OneDrive\Documents\portfolio\avatar4.png"
       inkscape:export-xdpi="96"
       inkscape:export-ydpi="96" />
    <path
       style="display:inline;fill:#000000;fill-opacity:1;stroke:#000000;stroke-width:0.265;stroke-linecap:round;stroke-linejoin:bevel;stroke-miterlimit:4;stroke-dasharray:none;stroke-opacity:1"
       d="m -50.475459,24.99502 c -0.520239,-2.21821 -2.604041,-4.16505 -4.820843,-4.69713 -2.957872,-0.70997 -6.050118,-0.0143 -9.077307,-0.93812 -0.988772,-0.35013 -1.412835,-0.92016 -1.458097,-0.90466 0.873323,2.31939 2.646931,3.44598 3.056894,3.61751 1.35308,0.5661 4.708371,0.79752 7.331769,1.13552 2.515465,0.32411 3.446797,0.64756 4.967584,1.78688 z"
       id="path12160-4"
       sodipodi:nodetypes="csccssc"
       inkscape:export-filename="C:\Users\jdtan\OneDrive\Documents\portfolio\avatar4.png"
       inkscape:export-xdpi="96"
       inkscape:export-ydpi="96" />
    <path
       style="display:inline;fill:#000000;fill-opacity:1;stroke:#000000;stroke-width:0.265;stroke-linecap:round;stroke-linejoin:round;stroke-miterlimit:4;stroke-dasharray:none;stroke-opacity:1"
       d="m -25.979677,23.13144 c 0.301166,-2.20352 2.27849,-5.21168 4.280691,-5.74687 2.203517,-0.589 5.856296,-0.43801 8.759892,-1.69757 0.942941,-0.45948 1.05247,-1.0105 1.099191,-1.00021 0.503578,1.95303 -0.894196,3.977 -2.320748,4.35775 -1.356484,0.36204 -5.146715,0.84667 -7.196355,1.39265 -2.272646,0.6096 -3.535432,1.27366 -4.622671,2.69425 z"
       id="path12160"
       sodipodi:nodetypes="csccscc"
       inkscape:export-filename="C:\Users\jdtan\OneDrive\Documents\portfolio\avatar4.png"
       inkscape:export-xdpi="96"
       inkscape:export-ydpi="96" />
    <path
       style="display:inline;fill:#000000;fill-opacity:1;stroke:#000000;stroke-width:0.211433px;stroke-linecap:butt;stroke-linejoin:miter;stroke-opacity:1"
       d="m -51.042907,12.57213 c -1.759185,-1.40848 -4.01155,-2.37266 -7.962318,-1.80676 -0.146501,-0.0585 2.448888,-1.63136 4.687433,-0.9704 2.238544,0.66095 3.274885,2.77716 3.274885,2.77716 z"
       id="path21316-0"
       sodipodi:nodetypes="cczc"
       inkscape:export-filename="C:\Users\jdtan\OneDrive\Documents\portfolio\avatar4.png"
       inkscape:export-xdpi="96"
       inkscape:export-ydpi="96" />
    <path
       style="display:inline;fill:#000000;fill-opacity:1;stroke:#000000;stroke-width:0.211433px;stroke-linecap:butt;stroke-linejoin:miter;stroke-opacity:1"
       d="m -26.242605,11.77847 c 1.507932,-1.67472 3.574473,-2.99085 7.56474,-3.07207 0.135085,-0.0815 -2.68071,-1.21335 -4.782718,-0.1983 -2.101996,1.01466 -2.782035,3.27073 -2.782035,3.27073 z"
       id="path60183"
       sodipodi:nodetypes="cczc"
       inkscape:export-filename="C:\Users\jdtan\OneDrive\Documents\portfolio\avatar4.png"
       inkscape:export-xdpi="96"
       inkscape:export-ydpi="96" />
    <path
       style="display:inline;fill:#ff9daa;fill-opacity:1;stroke:none;stroke-width:0.264583px;stroke-linecap:butt;stroke-linejoin:miter;stroke-opacity:1"
       d="m -7.708172,41.7426 6.641626,22.05361 11.750576,-4.68319 5.44954,-3.49112 2.80992,-8.25946 3.32082,-10.04759 1.70298,-5.10894 1.6406,-0.18495 2.64922,-0.54189 5.96074,-5.78011 3.73298,-5.59948 0.48168,-3.67278 -1.02356,-4.99739 -2.58901,-4.69634 -2.76963,-3.07069 -3.67278,-2.34816 -1.62566,1.08377 -3.49215,3.79319 -6.02095,8.06808 -1.02356,-3.55237 -2.04713,-1.68586 -2.34816,0.42147 -0.36126,1.32461 0.72251,7.46597 -0.48167,4.99739 0.72251,2.70943 -4.81676,9.03142 -5.17802,7.34556 -5.358644,0.42146 z"
       id="path10828"
       inkscape:export-filename="C:\Users\jdtan\OneDrive\Documents\portfolio\avatar4.png"
       inkscape:export-xdpi="96"
       inkscape:export-ydpi="96" />
    <path
       id="path32017"
       style="display:inline;fill:none;fill-opacity:1;stroke:#ff9daa;stroke-width:1.323;stroke-linecap:round;stroke-linejoin:miter;stroke-miterlimit:4;stroke-dasharray:none;stroke-opacity:1"
       d="m 22.89775,16.03036 c 2.46055,0.37814 4.62306,1.62625 6.58086,3.98806 M 13.72412,26.52545 C 12.4296,25.57252 11.99628,22.63321 12.19096,20.63623 13.32091,16.23461 11.74035,10.34236 12.05681,9.90459 c 0.29262,-0.51309 2.93666,-2.0771 4.85304,1.53816 0.50198,1.20995 0.97684,4.00581 1.66614,4.76069 0.61878,0.77029 1.14628,0.92605 1.9543,2.97036 m -0.73133,11.95977 c 0.17978,0.0289 2.69156,1.21965 4.53062,1.13649 2.66528,-0.12052 5.28523,-0.60769 9.80376,-6.166 2.24265,-2.75871 4.9368,-6.01769 4.71678,-9.56614 C 38.48338,10.62319 34.17265,3.10819 29.07859,1.68614 26.72087,0.98652 22.0902,9.09193 18.59391,13.41144 c -0.0199,0.0246 -0.0397,0.049 -0.0596,0.0733 -0.007,0.009 -0.0144,0.0176 -0.0215,0.0264 -0.24022,0.29419 -0.47491,0.56987 -0.70294,0.82288 M -0.67461,63.64298 c 0,0 14.21983,-4.5767 17.37041,-8.51492 0.99114,-1.07277 4.6634,-15.85079 7.99869,-22.89446 m -32.010728,9.44091 c 0,0 3.460126,1.55306 10.129618,0.68313 C 6.59036,37.42609 10.7119,31.53215 13.04676,25.6392"
       sodipodi:nodetypes="cccccccccssscsssccccccc"
       inkscape:export-filename="C:\Users\jdtan\OneDrive\Documents\portfolio\avatar4.png"
       inkscape:export-xdpi="96"
       inkscape:export-ydpi="96" />
    <path
       style="display:inline;fill:#000000;fill-opacity:1;stroke:#000000;stroke-width:1.32292;stroke-linecap:round;stroke-linejoin:round;stroke-miterlimit:4;stroke-dasharray:none;stroke-opacity:1"
       d="m -25.389962,-16.91803 c -3.238301,-4.43987 -9.487079,-6.29587 -11.90877,-7.04066 -30.980589,27.48794 -31.747631,28.22344 -32.697248,32.01605 -0.682972,15.89663 3.046075,33.67581 5.507978,35.90016 2.822829,2.15711 6.078298,4.31422 9.196102,6.47133 -8.070789,-2.81323 -17.904555,-8.23683 -20.394459,-10.17658 -2.536175,-2.31993 -7.56026,-20.02963 -8.174312,-30.99426 2.272671,-6.28344 2.5521,-9.25778 22.537794,-29.4117 5.689536,-5.25791 10.609385,-8.81251 26.480432,-8.15527 3.999385,0.46706 7.143092,1.96094 7.947653,6.26179 z"
       id="path1154"
       sodipodi:nodetypes="ccccccccccc"
       inkscape:export-filename="C:\Users\jdtan\OneDrive\Documents\portfolio\avatar4.png"
       inkscape:export-xdpi="96"
       inkscape:export-ydpi="96" />
    <path
       style="display:inline;fill:#000000;fill-opacity:1;stroke:#000000;stroke-width:1.32292;stroke-linecap:round;stroke-linejoin:round;stroke-miterlimit:4;stroke-dasharray:none;stroke-opacity:1"
       d="m -24.365994,-16.86916 c 2.930195,0.0572 11.076603,3.26855 13.685378,5.39681 C -2.99102,-5.1991 0.37156,-1.21923 3.20996,13.9581 5.26686,29.10821 -1.512795,40.2252 -6.664403,52.37176 -1.171854,44.89039 6.4015,28.63199 7.18378,21.66492 7.94156,13.04585 4.62296,0.8119 0.29657,-5.88445 -4.318419,-13.0275 -11.231194,-17.71087 -19.428815,-19.87963 Z"
       id="path3435"
       sodipodi:nodetypes="cscccscc"
       inkscape:export-filename="C:\Users\jdtan\OneDrive\Documents\portfolio\avatar4.png"
       inkscape:export-xdpi="96"
       inkscape:export-ydpi="96" />
    <path
       style="display:inline;fill:#ff5d73;fill-opacity:1;stroke:none;stroke-width:0.265;stroke-linecap:butt;stroke-linejoin:miter;stroke-miterlimit:4;stroke-dasharray:none;stroke-opacity:1"
       d="m -0.43007,63.56209 c 0,0 2.72096,-0.33524 5.01442,-1.09279 1.44404,3.167 2.32654,6.0553 3.14138,8.69908 0.7151,0.21301 -7.86231,-5.3841 -8.1558,-7.60629 z"
       id="path11125"
       sodipodi:nodetypes="sccs"
       inkscape:export-filename="C:\Users\jdtan\OneDrive\Documents\portfolio\avatar4.png"
       inkscape:export-xdpi="96"
       inkscape:export-ydpi="96" />
    <path
       style="display:inline;fill:#ff5d73;fill-opacity:1;stroke:none;stroke-width:0.264583px;stroke-linecap:butt;stroke-linejoin:miter;stroke-opacity:1"
       d="m 20.60671,31.22333 c 0.6307,0.5079 1.66929,1.55969 4.5161,1.66049 l -2.7816,7.30715 c 0.0805,-2.10031 -0.13149,-6.41726 -1.7345,-8.96764 z"
       id="path11931"
       sodipodi:nodetypes="cccc"
       inkscape:export-filename="C:\Users\jdtan\OneDrive\Documents\portfolio\avatar4.png"
       inkscape:export-xdpi="96"
       inkscape:export-ydpi="96" />
    <path
       style="display:inline;fill:#ff5d73;fill-opacity:1;stroke:none;stroke-width:0.264583px;stroke-linecap:butt;stroke-linejoin:miter;stroke-opacity:1"
       d="m 24.33283,16.55142 c 2.00015,0.0607 4.94595,1.59339 6.96964,4.32038 -0.62469,0.33431 -4.70695,0.0262 -5.15038,-0.39819 -0.58922,-0.28115 -1.94701,-3.71282 -1.81926,-3.92219 z"
       id="path11999"
       sodipodi:nodetypes="cccc"
       inkscape:export-filename="C:\Users\jdtan\OneDrive\Documents\portfolio\avatar4.png"
       inkscape:export-xdpi="96"
       inkscape:export-ydpi="96" />
    <path
       style="display:inline;fill:#ff5d73;fill-opacity:1;stroke:none;stroke-width:0.264583px;stroke-linecap:butt;stroke-linejoin:miter;stroke-opacity:1"
       d="m 18.08468,12.99643 c 0.23699,0.89336 0.4801,1.7459 0.82417,2.61249 2.14793,1.57032 2.22805,3.03636 2.45628,4.71168 0.0813,-0.38932 0.48775,-3.19174 -0.82976,-5.20159 -1.19356,-1.82077 -2.27828,-2.00539 -2.45069,-2.12258 z"
       id="path16638"
       sodipodi:nodetypes="cccsc"
       inkscape:export-filename="C:\Users\jdtan\OneDrive\Documents\portfolio\avatar4.png"
       inkscape:export-xdpi="96"
       inkscape:export-ydpi="96" />
    <path
       style="display:inline;fill:#2e1115;fill-opacity:1;stroke:none;stroke-width:0.264583px;stroke-linecap:butt;stroke-linejoin:miter;stroke-opacity:1"
       d="m -44.310436,-29.83934 c 0,0 -3.004887,0.33379 -5.986198,0.89297 -7.874761,4.88421 -15.713475,13.71173 -15.713475,13.71173 0,0 5.912221,-9.74073 10.173761,-12.38881 2.405277,-1.49462 6.552402,-2.32866 11.525912,-2.21589 z"
       id="path49158"
       sodipodi:nodetypes="cccsc"
       inkscape:export-filename="C:\Users\jdtan\OneDrive\Documents\portfolio\avatar4.png"
       inkscape:export-xdpi="96"
       inkscape:export-ydpi="96" />
  </g>
</svg>
